<?xml version="1.0" encoding="utf-8"?>
<!-- Generator: Adobe Illustrator 27.7.0, SVG Export Plug-In . SVG Version: 6.00 Build 0)  -->
<svg version="1.1" id="Layer_1" xmlns="http://www.w3.org/2000/svg" xmlns:xlink="http://www.w3.org/1999/xlink" x="0px" y="0px"
	 viewBox="0 0 595.28 841.89" style="enable-background:new 0 0 595.28 841.89;" xml:space="preserve">
<g>
	<path d="M125.71,379.91c30.95,0,61.31,0,91.27,0c0,5.64,0,10.02,0,14.15c-35.52,0-70.29,0-105.8,0c0-9.85,0-18.93,0-28.45
		c-4.37,0-7.98,0-11.88,0c0,24.59,0,48.74,0,72.54c4.33,0,7.94,0,12.28,0c0-9.79,0-18.86,0-28.09c35.79,0,70.79,0,105.36,0
		c0,5.3,0,9.67,0,14.85c-30.89,0-61.01,0-91.39,0c0,4.89,0,8.95,0,13.13c35.17,0,69.87,0,104.19,0c0-24.73,0-48.59,0-72.21
		c-35.23,0-69.73,0-104.04,0C125.71,370.62,125.71,374.67,125.71,379.91z"/>
	<path d="M249.5,440.65c40.08,0,79.01,0,117.95,0c0-5.11,0-9.1,0-13.37c-43.67,0-86.66,0-129.89,0c0,15.62,0,30.42,0,45.5
		c43.65,0,86.66,0,130.11,0c0-4.7,0-8.76,0-14.28c-39.51,0-78.68,0-118.17,0C249.5,452.22,249.5,447.38,249.5,440.65z"/>
	<polygon points="111.69,444.92 99.31,444.92 99.36,472.79 228.28,472.79 228.28,459.94 111.69,459.94 	"/>
	<path d="M237.68,415.2h130.39v-50.11H237.68V415.2z M250.08,382.76h105.6v14.77h-105.6V382.76z"/>
	<polygon points="401.41,364.57 401.41,365.6 401.1,365.6 401.1,390.95 386.47,390.95 386.47,365.6 375.48,365.6 375.48,419.15 
		387.46,419.15 387.46,405.41 494.53,405.41 494.53,419.15 505.25,419.15 505.25,391.71 413.77,391.71 413.77,378.71 506.31,378.71 
		506.31,364.57 	"/>
	<polygon points="376.01,426.85 376.01,438.75 376.01,443.63 376.01,453.62 376.01,455.53 425.11,455.53 425.11,461.06 
		376.01,461.06 376.01,472.96 425.11,472.96 431.25,472.96 437.39,472.96 437.39,443.62 425.11,443.62 425.11,443.63 388.28,443.63 
		388.28,438.75 437.39,438.75 437.39,426.85 388.28,426.85 	"/>
	<polygon points="457.21,438.52 506.31,438.52 506.31,426.62 457.21,426.62 444.93,426.62 444.93,438.52 444.93,443.4 
		444.93,453.39 444.93,455.3 494.03,455.3 494.03,460.83 444.93,460.83 444.93,472.73 494.03,472.73 500.17,472.73 506.31,472.73 
		506.31,443.39 494.03,443.39 494.03,443.4 457.21,443.4 	"/>
</g>
</svg>
